<svg version="1.1" id="Layer_1" xmlns="http://www.w3.org/2000/svg" xmlns:xlink="http://www.w3.org/1999/xlink" x="0px" y="0px" width="22" viewBox="0 0 124 64" enable-background="new 0 0 124 64" xml:space="preserve" height="18"><path fill="#F99935" opacity="1.000000" stroke="none" d=" M1.393732,21.294874   C1.000000,15.514737 1.178457,10.021262 0.926586,4.547590   C0.795770,1.704701 1.305674,0.867288 4.438092,0.900689   C23.218826,1.100950 42.002769,1.000000 60.785641,1.000000   C80.732056,1.000000 100.680305,1.141222 120.623329,0.881169   C124.625038,0.828987 125.316635,2.048987 125.079468,5.606058   C124.759476,10.405107 125.000000,15.241529 125.000000,20.530956   C122.881516,22.851902 120.284706,22.385683 117.829376,22.391356   C99.002640,22.434837 80.175774,22.399473 60.861465,22.423626   C56.826954,22.402323 53.279926,22.382782 49.246078,22.420588   C35.207062,22.392298 21.654741,22.435144 8.102563,22.394979   C5.975553,22.388676 3.784965,22.691690 1.393732,21.294874  z" /><path fill="#158A44" opacity="1.000000" stroke="none" d=" M124.599838,44.700684   C125.000000,50.485264 124.821541,55.978737 125.073410,61.452408   C125.204224,64.295288 124.694344,65.132713 121.561913,65.099304   C102.781181,64.899040 83.997238,65.000000 65.214371,65.000000   C45.267960,65.000000 25.319712,64.858788 5.376692,65.118835   C1.375022,65.171013 0.683357,63.951061 0.920540,60.393959   C1.240535,55.594906 1.000000,50.758476 1.000000,45.469044   C2.789033,43.381802 5.013138,43.602585 7.155522,43.601234   C44.384422,43.577728 81.613335,43.578568 118.842239,43.600315   C120.658737,43.601376 122.517014,43.448925 124.599838,44.700684  z" /><path fill="#FFFEFE" opacity="1.000000" stroke="none" d=" M1.257810,42.400726   C1.000000,36.311958 1.000000,30.623919 1.000000,24.467939   C1.630317,23.339252 1.416547,22.239712 2.661256,21.594536   C17.468561,21.504499 31.828140,21.520777 46.626461,21.514786   C47.351772,21.515417 47.638332,21.516514 48.345310,21.563885   C51.688133,22.385334 54.686066,21.781235 58.015022,22.183840   C58.877476,22.487619 59.237915,22.828747 59.545692,23.662298   C59.599934,24.495291 59.506794,24.954445 59.166908,25.688465   C58.697289,26.538128 58.392124,27.097361 58.182934,28.029503   C58.080959,28.752098 58.016521,29.165205 57.873039,29.886452   C57.608215,30.806332 57.294025,31.349367 56.646416,32.040180   C56.068790,32.444595 55.700146,32.582909 55.028347,32.624390   C54.418877,32.497005 54.169441,32.295147 53.877678,32.098190   C53.696110,32.249249 53.504219,32.688293 53.454979,32.925232   C53.369015,33.674500 53.456909,34.164459 53.814209,34.872509   C54.640114,36.121834 55.459324,37.015060 56.536674,38.125923   C57.313057,38.827400 57.835724,39.309113 58.469925,40.206745   C58.689674,40.825191 58.734497,41.091709 58.733963,41.770851   C58.515846,42.752670 58.180374,43.203167 57.270737,43.698830   C39.235523,44.151588 21.624304,43.970905 3.541909,43.885914   C2.437051,43.659771 1.918874,43.317722 1.257810,42.400726  z" /><path fill="#FFFEFE" opacity="1.000000" stroke="none" d=" M124.803497,23.750000   C125.000000,29.688040 125.000000,35.376080 125.000000,41.532059   C124.686440,42.555538 124.293411,43.047592 123.380661,43.650795   C105.379509,44.198742 87.816818,43.930470 69.805237,43.923622   C68.765411,43.781891 68.238487,43.541676 67.572479,42.792244   C67.306946,42.163601 67.247787,41.898701 67.198883,41.234909   C67.308670,40.332073 67.486137,39.857845 67.951286,39.124363   C69.019920,37.829613 69.881737,36.822056 70.976402,35.608063   C71.340706,35.245731 71.487000,35.102711 71.994980,34.466606   C72.683968,33.148113 72.541443,32.359299 72.005585,31.326416   C71.606049,30.735601 71.362442,30.413696 70.910324,29.880661   C70.439598,29.372391 70.167763,29.082699 69.677773,28.581669   C69.161255,28.075274 68.867035,27.776093 68.350754,27.228088   C67.831642,26.620270 67.586998,26.226433 67.258530,25.453211   C67.104660,24.838690 67.069908,24.581087 67.057785,23.923508   C67.263168,22.669113 67.580009,21.910955 68.932739,21.541510   C87.635223,21.559023 105.886353,21.436859 124.568588,21.786085   C125.000000,22.000000 125.000000,22.500000 125.000000,22.750000   C124.868996,23.166666 124.737999,23.333334 124.803497,23.750000  z" /><path fill="#27804A" opacity="1.000000" stroke="none" d=" M125.000000,44.750000   C83.979103,45.000206 42.958210,45.000412 1.468657,45.000309   C1.000000,45.000000 1.000000,44.500000 1.000000,44.250000   C2.558875,43.101746 4.264010,43.541065 5.895488,43.537426   C22.221128,43.500965 38.546883,43.519550 54.872604,43.514221   C77.950233,43.506691 101.027855,43.497524 124.552719,43.781189   C125.000000,44.000000 125.000000,44.500000 125.000000,44.750000  z" /><path fill="#A4E0BC" opacity="1.000000" stroke="none" d=" M125.000000,43.750000   C83.979103,44.001476 42.958202,44.002956 1.468653,44.002220   C1.000000,44.000000 1.000000,43.500000 1.000000,43.250000   C1.149063,42.873875 1.298125,42.747753 1.715662,42.738708   C20.338675,42.881832 38.693214,42.907879 57.513092,42.890579   C60.969345,41.056583 64.077110,41.335251 67.622757,42.594223   C86.374390,42.885403 104.728310,42.907482 123.550049,42.886211   C124.197479,42.769501 124.377090,42.696136 124.778351,42.811386   C125.000000,43.000000 125.000000,43.500000 125.000000,43.750000  z" /><path fill="#E49C53" opacity="1.000000" stroke="none" d=" M125.000000,21.750000   C108.464806,22.097277 91.929604,22.191957 75.394447,22.295000   C73.245125,22.308393 71.096062,22.364887 68.504669,22.540056   C67.055107,23.068895 66.020775,23.324190 64.527008,23.311855   C63.030518,23.303701 61.949013,23.218718 60.553894,22.635681   C60.034637,22.213446 59.873619,21.992191 59.856525,21.386532   C81.354546,20.998278 102.708633,20.994429 124.531357,20.995289   C125.000000,21.000000 125.000000,21.500000 125.000000,21.750000  z" /><path fill="#E49C53" opacity="1.000000" stroke="none" d=" M49.136055,21.849171   C33.593689,22.208702 18.267241,22.303614 2.496926,22.534035   C1.845886,22.607756 1.638712,22.545965 1.215769,22.242088   C1.000000,22.000000 1.000000,21.500000 1.000000,21.250000   C16.687990,20.997149 32.375980,20.994297 48.532707,20.994862   C49.118290,21.193701 49.235134,21.389124 49.136055,21.849171  z" /><path fill="#FFFCE9" opacity="1.000000" stroke="none" d=" M1.000000,22.333332   C1.184044,22.097427 1.368087,22.194855 1.802595,22.480913   C1.838887,23.048943 1.624714,23.428341 1.205271,23.903870   C1.000000,23.555555 1.000000,23.111111 1.000000,22.333332  z" /><path fill="#F3FFF9" opacity="1.000000" stroke="none" d=" M1.867395,42.664490   C1.984137,42.855785 1.497297,42.963573 1.248648,42.981789   C1.000000,43.000000 1.000000,42.500000 1.000000,42.250000   C1.300436,42.078117 1.550653,42.235851 1.867395,42.664490  z" /><path fill="#F3FFF9" opacity="1.000000" stroke="none" d=" M125.000000,42.750000   C125.000000,43.000000 124.503105,42.957325 124.260483,42.900093   C124.140450,42.562103 124.330688,42.339016 124.794281,42.086800   C125.000000,42.000000 125.000000,42.500000 125.000000,42.750000  z" /><path fill="#FFFCE9" opacity="1.000000" stroke="none" d=" M125.000000,23.750000   C124.618622,23.828772 124.293694,23.633764 124.821930,23.077213   C125.000000,23.000000 125.000000,23.500000 125.000000,23.750000  z" /><path fill="#E49D4B" opacity="1.000000" stroke="none" d=" M48.878754,22.180403   C48.938290,21.928217 48.956440,21.742640 48.988022,21.277672   C52.362385,20.997244 55.723320,20.996212 59.542355,20.998653   C60.000454,21.002127 59.998173,21.441059 59.995960,21.660519   C56.678532,23.116983 53.239471,22.219799 49.400932,22.418682   C48.935009,22.369753 48.837364,22.247013 48.878754,22.180403  z" /><path fill="#E3E6F9" opacity="1.000000" stroke="none" d=" M56.403496,39.348099   C55.065937,38.322800 54.046593,37.262878 53.013062,35.881813   C52.566814,34.679688 52.485092,33.744816 52.792778,32.364029   C53.013832,31.944016 53.033001,31.981319 53.037674,31.960480   C53.260460,31.850504 53.478569,31.761366 54.024269,31.804886   C54.678509,31.939333 55.005104,31.944389 55.575619,31.975166   C56.410290,31.502596 56.997295,31.676517 57.829254,32.216831   C58.335941,32.770432 58.525959,33.149063 58.656097,33.884071   C58.654358,34.407074 58.627975,34.614861 58.520241,35.123451   C58.258797,36.017284 58.087318,36.612553 57.904793,37.530571   C57.639843,38.462162 57.327988,38.999191 56.403496,39.348099  z" /><path fill="#6D6E7C" opacity="1.000000" stroke="none" d=" M68.654175,39.430687   C68.790985,39.839188 68.569221,40.023537 68.170273,40.602512   C64.994469,43.245380 61.851162,42.967442 58.321999,41.268936   C57.791245,40.731087 57.580097,40.457035 56.868668,40.045082   C57.279930,39.245098 58.036446,38.345177 59.617016,37.997673   C60.320763,37.931484 60.603748,37.931629 61.306435,37.982349   C62.553329,38.155392 63.325859,38.534454 64.592941,38.568314   C66.147980,38.568829 67.258553,38.694378 68.654175,39.430687  z" /><path fill="#FFFAF0" opacity="1.000000" stroke="none" d=" M63.698666,22.385496   C65.149368,22.310659 66.230843,22.330832 67.687378,22.514849   C68.042259,23.259447 68.022057,23.840202 68.000153,24.714687   C65.233246,26.253376 62.395947,25.042442 59.293953,25.008615   C58.986729,24.401474 58.985981,24.040655 58.979805,23.409271   C60.273102,21.907207 61.893654,22.805155 63.698666,22.385496  z" /><path fill="#FFDAA9" opacity="1.000000" stroke="none" d=" M63.671234,22.181593   C62.765862,23.360077 61.189777,22.848295 59.355099,23.089960   C55.851265,23.028858 52.728153,22.919016 49.270023,22.589462   C52.316441,22.238371 55.697868,22.106987 59.536522,21.927790   C61.087353,21.944218 62.180958,22.008457 63.671234,22.181593  z" /><path fill="#F3FFF9" opacity="1.000000" stroke="none" d=" M57.999985,41.312660   C61.061394,41.888863 64.121719,42.649025 67.599899,41.050381   C67.997726,41.412476 68.002365,41.827820 68.013733,42.553242   C64.975716,42.895859 61.930965,42.928394 58.432320,42.904083   C57.984810,42.438225 57.991192,42.029205 57.999985,41.312660  z" /><path fill="#6F6E81" opacity="1.000000" stroke="none" d=" M58.572746,24.988941   C61.749802,23.709267 64.494911,23.743773 67.610420,24.950523   C68.129730,25.279142 68.261017,25.549868 68.732391,26.117262   C66.642555,28.142563 63.864677,26.454683 60.889168,27.254082   C59.528515,27.405809 58.637108,27.320395 57.354824,26.807753   C57.339073,26.171494 57.748543,25.693544 58.572746,24.988941  z" /><path fill="#E0E2F7" opacity="1.000000" stroke="none" d=" M56.901264,26.820484   C57.941505,26.431494 58.953407,26.213545 60.481789,25.965511   C61.340370,26.264894 61.588123,26.652977 61.749542,27.458611   C61.685188,28.523045 61.382484,29.135014 60.625961,29.866951   C60.151043,30.160522 59.943935,30.245827 59.404724,30.337719   C58.872475,30.255852 58.672333,30.167397 58.231125,29.861141   C57.763775,29.279074 57.566792,28.899765 57.185436,28.273354   C56.935204,27.693226 56.904064,27.342377 56.901264,26.820484  z" /><path fill="#EDEEFF" opacity="1.000000" stroke="none" d=" M61.554604,38.870983   C60.299126,40.338280 58.854626,39.581188 56.954903,39.808594   C56.368389,39.907177 56.134346,39.596596 56.109814,39.489658   C56.377892,38.820614 56.670502,38.258511 56.983681,37.373848   C57.416340,36.630215 57.506046,36.077999 57.790863,35.315296   C57.961086,35.094681 58.002178,35.069321 57.987736,35.049973   C58.084728,34.881252 58.196163,34.731876 58.585556,34.605446   C59.017750,34.730717 59.171978,34.833042 59.500320,35.148643   C59.776417,35.512814 59.878410,35.663712 60.295952,36.257286   C60.838406,36.986481 61.054726,37.280815 61.396622,37.824959   C61.572910,38.249374 61.614845,38.430466 61.554604,38.870983  z" /><path fill="#B2B5CD" opacity="1.000000" stroke="none" d=" M58.086868,32.851151   C57.314373,32.779831 56.849560,32.452648 56.102165,32.061539   C56.097637,31.467184 56.375687,30.936750 56.797195,30.143108   C57.203873,29.846277 57.467094,29.812656 58.027779,30.044504   C58.750595,31.059546 58.749786,31.822041 58.086868,32.851151  z" /><path fill="#555569" opacity="1.000000" stroke="none" d=" M52.668739,32.079067   C53.141388,32.866039 53.268944,33.788067 53.197685,35.135380   C52.078945,34.585350 51.638714,33.513245 52.668739,32.079067  z" /><path fill="#E7E8FC" opacity="1.000000" stroke="none" d=" M58.019989,29.440781   C58.015858,30.167826 57.804379,30.098251 57.266777,29.954288   C56.943855,29.471836 56.947060,29.063772 56.958305,28.349892   C57.248440,28.244102 57.530540,28.444132 58.019989,29.440781  z" /><path fill="#CECFE6" opacity="1.000000" stroke="none" d=" M54.213367,31.716612   C54.133617,31.969156 53.915371,32.000767 53.369736,31.986008   C53.174862,31.299397 53.499435,31.105816 54.213367,31.716612  z" /><path fill="#E7E8FC" opacity="1.000000" stroke="none" d=" M71.684967,29.619785   C73.993195,30.792683 74.607742,32.417965 73.554153,34.814167   C72.435432,34.987003 71.572525,35.004879 70.393600,34.885361   C69.664787,34.647289 69.305580,34.405941 68.840057,33.806252   C68.614586,32.841339 68.819908,32.225693 69.227615,31.332491   C69.613014,30.681297 69.890877,30.352594 70.474106,29.875132   C70.949402,29.648870 71.159164,29.605043 71.684967,29.619785  z" /><path fill="#E0E2F5" opacity="1.000000" stroke="none" d=" M61.230965,28.307220   C61.021641,27.622093 61.012218,27.140364 61.000534,26.297028   C63.465271,24.350908 65.761177,26.336567 68.613770,26.346161   C69.072495,26.413933 69.225929,26.736851 69.236076,26.828487   C69.036491,27.271940 68.755730,27.549505 68.116684,27.856609   C67.291138,28.171886 66.727364,28.334713 65.918556,28.668396   C65.304695,28.946238 64.950668,29.097851 63.744072,29.319435   C62.344372,29.205393 61.848896,28.921917 61.230965,28.307220  z" /><path fill="#DEDEF4" opacity="1.000000" stroke="none" d=" M69.075623,39.586845   C67.683876,39.835041 66.355003,40.015244 64.528976,40.171150   C63.660259,39.780636 63.449924,39.337395 63.456123,38.441681   C63.726261,37.589508 64.027557,37.180515 64.745850,36.631351   C65.820160,36.145706 66.583626,36.096760 67.724640,36.388908   C68.752144,36.983261 69.176079,37.600155 69.271805,38.773987   C69.211296,39.152420 69.138512,39.518852 69.075623,39.586845  z" /><path fill="#E0E2F5" opacity="1.000000" stroke="none" d=" M69.472191,38.955597   C68.849274,38.550610 68.487244,37.948795 67.986893,37.026512   C67.797462,36.498280 67.746361,36.290524 67.809410,35.782112   C68.300583,34.942493 68.786354,34.540691 69.687424,34.158463   C70.914200,34.177101 71.858742,34.343964 73.048950,34.786739   C73.294617,35.062653 73.054817,35.344994 72.667877,35.583149   C71.431648,36.800465 70.582367,37.779621 69.472191,38.955597  z" /><path fill="#EDEEFF" opacity="1.000000" stroke="none" d=" M66.780701,27.256569   C67.469429,27.013187 67.977051,27.014492 68.865448,26.967960   C69.483368,27.053223 69.687172,27.225718 69.960037,27.612480   C70.224449,28.134504 70.443123,28.440313 70.994217,28.797791   C71.486519,29.007214 71.675797,29.161413 71.915009,29.519108   C71.848938,29.747503 71.696854,29.816656 71.302780,29.950977   C70.754028,30.268127 70.402573,30.422173 69.722328,30.548676   C69.236916,30.560884 69.042801,30.518461 68.572426,30.360239   C68.118073,30.151531 67.939987,30.058620 67.505310,29.804062   C67.096405,29.507917 66.944107,29.373423 66.645752,28.970842   C66.448685,28.295246 66.477554,27.894379 66.780701,27.256569  z" /><path fill="#E7E8FC" opacity="1.000000" stroke="none" d=" M72.408875,35.867233   C72.280930,35.821308 72.483566,35.432114 72.598282,35.459911   C72.712990,35.487709 72.755005,35.754623 72.755005,35.754623   C72.755005,35.754623 72.536827,35.913155 72.408875,35.867233  z" /><path fill="#DEDEF4" opacity="1.000000" stroke="none" d=" M71.095108,28.677635   C70.913986,28.724047 70.566818,28.550823 70.141045,28.082478   C70.351311,28.010900 70.640190,28.234449 71.095108,28.677635  z" /><path fill="#6A6D8F" opacity="1.000000" stroke="none" d=" M57.814941,33.427170   C57.945343,32.391785 58.111496,31.676556 58.252495,30.599365   C58.227341,30.237402 58.440144,30.243134 58.544632,30.232178   C58.649124,30.221222 58.861088,30.324379 58.922626,30.424908   C59.602932,30.599482 60.094891,30.889370 60.630302,31.805616   C60.994778,33.483555 60.783546,34.589973 59.147343,35.263557   C58.705650,35.215443 58.320156,35.199459 58.146725,35.115044   C57.932426,34.602863 57.891560,34.175095 57.814941,33.427170  z" /><path fill="#D7DAEF" opacity="1.000000" stroke="none" d=" M57.698048,35.228798   C57.806393,35.635071 57.651691,36.175461 57.250622,36.883572   C57.147835,36.488499 57.291420,35.925705 57.698048,35.228798  z" /><path fill="#FBFDFF" opacity="1.000000" stroke="none" d=" M55.514099,34.494358   C55.528824,34.528591 55.499378,34.460125 55.514099,34.494358  z" /><path fill="#EDEEFF" opacity="1.000000" stroke="none" d=" M64.081757,38.151974   C63.962399,38.831787 63.977417,39.207191 64.012131,39.864727   C63.210480,40.535973 62.419018,40.600468 61.561607,39.532272   C61.502178,38.698460 61.518711,38.261631 61.541653,37.495506   C61.861641,36.795643 62.219620,36.556057 62.990128,36.428711   C63.530907,36.509083 63.737915,36.590168 64.149574,36.933903   C64.308197,37.413555 64.262161,37.630558 64.081757,38.151974  z" /><path fill="#858CAF" opacity="1.000000" stroke="none" d=" M61.840317,36.885490   C62.000401,37.533932 61.874981,38.004192 61.588882,38.803581   C61.428204,39.132717 61.442322,39.074780 61.447372,39.102592   C61.386665,38.936741 61.320908,38.743076 61.143581,38.263622   C60.886436,37.806168 60.740860,37.634495 60.747410,37.162010   C61.117962,36.809910 61.336384,36.758610 61.840317,36.885490  z" /><path fill="#7E7FA7" opacity="1.000000" stroke="none" d=" M60.214767,32.220371   C59.744526,31.618340 59.513550,31.231100 59.133369,30.684650   C59.585430,29.912195 60.186695,29.298952 60.909508,28.394768   C61.571228,28.255711 62.111393,28.407597 62.826580,28.771111   C63.001598,28.982740 63.469711,28.969656 64.291237,28.876999   C65.204819,28.983616 65.296875,29.182892 65.365631,29.711407   C65.156395,30.441856 64.914658,30.805223 64.354179,31.331757   C63.362206,32.008492 62.563671,32.336750 61.395714,32.577900   C60.867657,32.547897 60.660847,32.491531 60.214767,32.220371  z" /><path fill="#8C91AB" opacity="1.000000" stroke="none" d=" M58.736252,29.973045   C58.649124,30.221222 58.641911,30.186495 58.646935,30.204214   C58.506096,30.061951 58.360229,29.901966 58.132248,29.428371   C58.307880,29.318129 58.565628,29.521500 58.736252,29.973045  z" /><path fill="#7A7FA3" opacity="1.000000" stroke="none" d=" M59.966835,32.373802   C60.178307,32.015057 60.381111,32.024532 60.887852,32.053158   C62.349472,32.826134 63.346889,33.759876 64.392792,35.118790   C64.605934,35.914360 64.534889,36.368790 64.049347,37.005020   C63.395058,37.168854 63.032650,37.133579 62.398033,37.080990   C61.946018,37.044125 61.766209,37.024578 61.315365,36.993092   C60.874344,37.115284 60.704361,37.249409 60.241833,37.242462   C59.949284,37.101387 59.731457,37.024479 59.615967,37.026299   C59.500477,37.028114 59.568321,36.550690 59.356804,36.666428   C59.048222,36.527405 58.951153,36.272636 58.779869,35.616653   C59.707100,34.686676 59.982254,33.790119 59.966835,32.373802  z" /><path fill="#BFC4DC" opacity="1.000000" stroke="none" d=" M60.074486,37.305714   C60.129520,37.061646 60.309761,37.021904 60.767166,36.981659   C61.044327,36.981155 61.054817,37.479778 61.043415,37.728806   C60.720135,37.883160 60.442692,37.727226 60.074486,37.305714  z" /><path fill="#E3E6F9" opacity="1.000000" stroke="none" d=" M59.216576,36.803501   C59.145290,36.782169 59.335739,36.466625 59.335739,36.466625   C59.335739,36.466625 59.633945,36.681278 59.567211,36.854698   C59.500477,37.028114 59.287857,36.824833 59.216576,36.803501  z" /><path fill="#B0B3D0" opacity="1.000000" stroke="none" d=" M69.747574,33.888512   C69.439812,34.618053 68.909958,35.225868 68.073929,35.898689   C65.734314,35.425083 66.596634,34.284435 67.493042,32.967777   C68.040825,32.687748 68.288536,32.639027 68.894836,32.712006   C69.344109,33.144733 69.434792,33.455761 69.747574,33.888512  z" /><path fill="#F3F3FF" opacity="1.000000" stroke="none" d=" M69.433853,32.685623   C69.253426,32.833710 68.803154,32.828663 68.578003,32.830101   C67.868584,32.689487 67.602951,32.359039 67.586548,31.523827   C67.806656,31.005375 67.963310,30.831627 68.463089,30.583607   C69.038345,30.540030 69.270470,30.570723 69.715179,30.880985   C69.823273,31.619551 69.718781,32.078545 69.433853,32.685623  z" /><path fill="#DEDEF4" opacity="1.000000" stroke="none" d=" M70.153389,31.007183   C69.927765,31.160557 69.693398,31.096212 69.573380,31.077194   C69.241478,30.962034 69.029594,30.865892 68.870041,30.424685   C69.396820,30.057220 69.871277,30.034822 70.703262,30.014284   C70.833527,30.295366 70.606270,30.574589 70.153389,31.007183  z" /><path fill="#C2C3E0" opacity="1.000000" stroke="none" d=" M66.706429,27.131742   C66.981133,27.440697 67.000450,27.869511 67.013657,28.620338   C67.103317,29.132689 67.199081,29.323023 67.124313,29.784033   C66.754448,30.130856 66.555115,30.207001 66.047791,30.196604   C65.628326,29.928837 65.516876,29.747612 65.186378,29.334303   C64.967331,29.102219 65.025742,29.064276 65.012939,29.031887   C64.887695,28.842335 64.775246,28.685167 64.812439,28.279732   C65.458405,27.771511 65.954720,27.511557 66.706429,27.131742  z" /><path fill="#8A8AAF" opacity="1.000000" stroke="none" d=" M64.695450,28.043659   C64.962082,28.031466 64.983459,28.515408 64.991798,28.757454   C64.823524,28.999378 64.646904,28.999256 64.204147,28.984409   C64.101608,28.665077 64.265213,28.360466 64.695450,28.043659  z" /><path fill="#797CA1" opacity="1.000000" stroke="none" d=" M68.096832,30.830370   C68.327873,31.466965 68.322685,31.857256 68.335175,32.539543   C67.817352,33.672913 66.957794,34.393299 67.548477,35.768486   C67.767746,35.963692 67.806496,36.335999 67.827530,36.521019   C67.165985,36.837341 66.483398,36.968647 65.444092,37.072369   C64.879120,37.157528 64.670876,37.270267 64.118149,37.296410   C63.773666,37.209816 63.758224,37.177658 63.757843,37.190895   C63.818684,36.656704 63.879898,36.109276 63.927025,35.148689   C63.864891,34.300655 63.945034,33.888584 64.289688,33.212463   C64.884644,32.173325 65.243835,31.364893 66.207359,30.633049   C66.975311,30.431334 67.420334,30.458496 68.096832,30.830370  z" /><path fill="#858CAF" opacity="1.000000" stroke="none" d=" M63.788124,37.525497   C63.990417,37.165447 64.207169,37.121075 64.755646,37.060745   C64.861542,37.379879 64.635712,37.714973 64.178635,38.253227   C63.899117,38.251316 63.850853,38.046246 63.788124,37.525497  z" /><path fill="#9F9FBC" opacity="1.000000" stroke="none" d=" M68.614014,31.125690   C67.818405,31.029783 67.303741,30.982891 66.408295,30.874752   C65.908607,30.648539 65.789711,30.483576 65.897575,30.114616   C66.450615,29.848518 66.696541,29.673492 66.934830,29.163950   C67.007553,28.942354 67.504311,28.979086 67.753159,28.989429   C68.217438,29.233713 68.429573,29.470610 68.796463,29.889072   C68.954521,30.067678 68.952431,30.053442 68.937401,30.066530   C68.981720,30.258013 69.041061,30.436405 69.276886,30.836487   C69.267227,31.097021 69.081100,31.135866 68.614014,31.125690  z" /><path fill="#DEDEF4" opacity="1.000000" stroke="none" d=" M68.865189,29.834400   C68.678062,29.878899 68.401611,29.690119 68.063576,29.250557   C68.336433,29.101801 68.594383,29.302250 68.865189,29.834400  z" /><path fill="#313073" opacity="1.000000" stroke="none" d=" M65.114548,33.718315   C64.560196,34.043823 64.317963,34.172668 64.014763,34.556900   C62.466839,34.784275 61.384968,34.334938 61.173813,32.395866   C61.887943,31.788807 62.584103,31.505312 63.565880,31.205275   C65.093094,31.444237 65.475327,32.284149 65.114548,33.718315  z" /><path fill="#898BBD" opacity="1.000000" stroke="none" d=" M65.151840,33.807056   C64.999588,33.126209 64.919563,32.326958 64.026886,31.447605   C64.068848,30.889826 64.286186,30.590916 64.744934,30.155256   C65.158165,29.885458 65.329979,29.752405 65.769974,29.804655   C66.038147,29.989956 66.055229,29.923571 66.089783,29.917095   C66.124344,29.910622 66.060730,30.362535 66.044113,30.588020   C65.838463,31.749792 65.649429,32.686081 65.151840,33.807056  z" /><path fill="#E0E2F5" opacity="1.000000" stroke="none" d=" M63.005600,28.993446   C63.001598,28.982740 62.962173,29.143202 62.997780,29.077793   C63.033386,29.012386 63.009602,29.004152 63.005600,28.993446  z" /><path fill="#77769D" opacity="1.000000" stroke="none" d=" M65.934723,29.763136   C65.863106,30.001936 65.688057,30.013914 65.249680,30.022202   C64.986343,30.018509 64.993881,29.559221 64.980606,29.330719   C65.327332,29.103598 65.615318,29.248297 65.934723,29.763136  z" /></svg>